<svg width="80.000000" height="80.000000" viewBox="0 0 80 80" fill="none" xmlns="http://www.w3.org/2000/svg" xmlns:xlink="http://www.w3.org/1999/xlink">
	<desc>
			Created with Pixso.
	</desc>
	<defs/>
	<rect id="span.comparison-label" rx="40.000000" width="80.000000" height="80.000000" fill="#DFD0A9" fill-opacity="1.000000"/>
	<path id="Before" d="M21.335 39.1318Q22.0557 39.3604 22.4629 39.8936Q22.873 40.4268 22.873 41.209Q22.873 42.3105 22.0146 42.9053Q21.1562 43.5 19.5127 43.5L15.168 43.5L15.168 35.1006L19.2725 35.1006Q20.8076 35.1006 21.6279 35.6895Q22.4512 36.2754 22.4512 37.2832Q22.4512 37.8955 22.1582 38.376Q21.8652 38.8564 21.335 39.1318ZM17.0986 36.5654L17.0986 38.543L19.0322 38.543Q19.7529 38.543 20.125 38.291Q20.4971 38.0391 20.4971 37.5469Q20.4971 37.0547 20.125 36.8115Q19.7529 36.5654 19.0322 36.5654L17.0986 36.5654ZM19.3691 42.0352Q20.1367 42.0352 20.5264 41.7832Q20.916 41.5312 20.916 41.0039Q20.916 39.9609 19.3691 39.9609L17.0986 39.9609L17.0986 42.0352L19.3691 42.0352ZM30.8519 41.9414L30.8519 43.5L24.348 43.5L24.348 35.1006L30.6966 35.1006L30.6966 36.6592L26.2786 36.6592L26.2786 38.4844L30.181 38.4844L30.181 39.9961L26.2786 39.9961L26.2786 41.9414L30.8519 41.9414ZM34.3453 36.6592L34.3453 38.8799L38.233 38.8799L38.233 40.4414L34.3453 40.4414L34.3453 43.5L32.4 43.5L32.4 35.1006L38.7486 35.1006L38.7486 36.6592L34.3453 36.6592ZM44.0533 43.6436Q42.7437 43.6436 41.692 43.0811Q40.6432 42.5156 40.0484 41.5254Q39.4566 40.5352 39.4566 39.2988Q39.4566 38.0654 40.0484 37.0752Q40.6432 36.085 41.692 35.5225Q42.7437 34.957 44.0533 34.957Q45.3599 34.957 46.4029 35.5225Q47.4488 36.085 48.0465 37.0752Q48.6471 38.0654 48.6471 39.2988Q48.6471 40.5352 48.0465 41.5254Q47.4488 42.5156 46.4029 43.0811Q45.3599 43.6436 44.0533 43.6436ZM44.0533 41.9883Q44.7945 41.9883 45.3951 41.6455Q45.9957 41.3027 46.3385 40.6934Q46.6812 40.0811 46.6812 39.2988Q46.6812 38.5195 46.3385 37.9072Q45.9957 37.2949 45.3951 36.9551Q44.7945 36.6123 44.0533 36.6123Q43.3092 36.6123 42.7086 36.9551Q42.108 37.2949 41.7652 37.9072Q41.4224 38.5195 41.4224 39.2988Q41.4224 40.0811 41.7652 40.6934Q42.108 41.3027 42.7086 41.6455Q43.3092 41.9883 44.0533 41.9883ZM55.4645 43.5L53.8444 41.1592L53.7477 41.1592L52.0573 41.1592L52.0573 43.5L50.112 43.5L50.112 35.1006L53.7477 35.1006Q54.8639 35.1006 55.6842 35.4727Q56.5075 35.8447 56.9499 36.5303Q57.3952 37.2129 57.3952 38.1475Q57.3952 39.085 56.944 39.7646Q56.4958 40.4414 55.6667 40.7988L57.5504 43.5L55.4645 43.5ZM55.4264 38.1475Q55.4264 37.4414 54.9694 37.0635Q54.5153 36.6826 53.6393 36.6826L52.0573 36.6826L52.0573 39.6123L53.6393 39.6123Q54.5153 39.6123 54.9694 39.2285Q55.4264 38.8447 55.4264 38.1475ZM65.4359 41.9414L65.4359 43.5L58.932 43.5L58.932 35.1006L65.2806 35.1006L65.2806 36.6592L60.8626 36.6592L60.8626 38.4844L64.765 38.4844L64.765 39.9961L60.8626 39.9961L60.8626 41.9414L65.4359 41.9414Z" fill="#FFFFFF" fill-opacity="1.000000" fill-rule="evenodd"/>
</svg>
