<svg width="36.000000" height="36.000000" viewBox="0 0 36 36" fill="none" xmlns="http://www.w3.org/2000/svg" xmlns:xlink="http://www.w3.org/1999/xlink">
	<desc>
			Created with Pixso.
	</desc>
	<defs>
		<clipPath id="clip1_310">
			<rect id="svg_social_instagram" width="36.000000" height="36.000000" fill="white" fill-opacity="0"/>
		</clipPath>
		<clipPath id="clip1_307">
			<rect id="svg" width="36.000000" height="36.000000" fill="white" fill-opacity="0"/>
		</clipPath>
	</defs>
	<rect id="a" rx="18.000000" width="36.000000" height="36.000000" fill="#000000" fill-opacity="1.000000"/>
	<g clip-path="url(#clip1_307)">
		<rect id="svg_social_instagram" width="36.000000" height="36.000000" fill="#FFFFFF" fill-opacity="0"/>
		<g clip-path="url(#clip1_310)">
			<path id="Vector" d="M23.9 10.7998C23.2 10.7998 22.6 11.4004 22.6 12.0996C22.6 12.7998 23.2 13.4004 23.9 13.4004C24.6 13.4004 25.2 12.7998 25.2 12.0996C25.2 11.4004 24.6 10.7998 23.9 10.7998ZM18 21.7002C16 21.7002 14.3 20.0996 14.3 18C14.3 16 15.9 14.2998 18 14.2998C20 14.2998 21.7 15.9004 21.7 18C21.7 20 20 21.7002 18 21.7002ZM18 12.4004C14.9 12.4004 12.4 14.9004 12.4 18C12.4 21.0996 14.9 23.5996 18 23.5996C21.1 23.5996 23.6 21.0996 23.6 18C23.6 14.9004 21.1 12.4004 18 12.4004ZM27 22.4004C27 23.5 26.8 24.0996 26.6 24.4004C26.4 24.9004 26.2 25.2998 25.8 25.7002C25.4 26.0996 25 26.2998 24.5 26.5C24.1 26.7002 23.5 26.7998 22.5 26.9004C21.3 27 20.9 27 18 27C15.1 27 14.7 27 13.6 26.9004C12.5 26.9004 11.9 26.7002 11.6 26.5C11.1 26.2998 10.7 26.0996 10.3 25.7002C9.89999 25.2998 9.70001 24.9004 9.5 24.4004C9.39999 24 9.20001 23.4004 9.10001 22.4004C9 21.2998 9 20.9004 9 18C9 15.0996 9 14.7002 9.10001 13.5996C9.10001 12.5 9.29999 11.9004 9.5 11.5996C9.70001 11.0996 9.89999 10.7002 10.3 10.2998C10.7 9.90039 11.1 9.7002 11.6 9.5C12 9.2998 12.6 9.2002 13.6 9.09961C14.7 9 15.1 9 18 9C20.9 9 21.3 9 22.4 9.09961C23.5 9.09961 24.1 9.2998 24.4 9.5C24.9 9.7002 25.3 9.90039 25.7 10.2998C26.1 10.7002 26.3 11.0996 26.5 11.5996C26.7 12 26.8 12.5996 26.9 13.5996C27 14.7002 27 15.0996 27 18L27 22.4004ZM28.9 13.5C28.8 12.2998 28.7 11.5 28.4 10.7998C28.1 10.0996 27.7 9.5 27.1 8.90039C26.5 8.2998 25.9 7.90039 25.2 7.59961C24.5 7.2998 23.7 7.09961 22.5 7.09961C21.4 7 21 7 18 7C15 7 14.6 7 13.5 7.09961C12.3 7.2002 11.5 7.2998 10.8 7.59961C10.1 7.90039 9.5 8.2998 8.89999 8.90039C8.29999 9.5 7.89999 10.0996 7.60001 10.7998C7.29999 11.5 7.10001 12.2998 7.10001 13.5C7 14.5996 7 15 7 18C7 21 7 21.4004 7.10001 22.5C7.20001 23.7002 7.29999 24.5 7.60001 25.2002C7.89999 25.9004 8.29999 26.5 8.89999 27.0996C9.5 27.7002 10.1 28.0996 10.8 28.4004C11.5 28.7002 12.3 28.9004 13.5 28.9004C14.6 29 15 29 18 29C21 29 21.4 29 22.5 28.9004C23.7 28.7998 24.5 28.7002 25.2 28.4004C25.9 28.0996 26.5 27.7002 27.1 27.0996C27.7 26.5 28.1 25.9004 28.4 25.2002C28.7 24.5 28.9 23.7002 28.9 22.5C29 21.4004 29 21 29 18C29 15 29 14.5996 28.9 13.5Z" fill="#FFFFFF" fill-opacity="1.000000" fill-rule="nonzero"/>
		</g>
	</g>
</svg>
