<svg width="90.000000" height="90.000000" viewBox="0 0 90 90" fill="none" xmlns="http://www.w3.org/2000/svg" xmlns:xlink="http://www.w3.org/1999/xlink">
	<desc>
			Created with Pixso.
	</desc>
	<defs>
		<clipPath id="clip1_133">
			<rect id="svg#Layer_1" width="90.000000" height="90.000000" fill="white" fill-opacity="0"/>
		</clipPath>
	</defs>
	<g clip-path="url(#clip1_133)">
		<path id="Vector" d="M90 45C90 69.853 69.8528 90 45 90C20.1472 90 0 69.853 0 45C0 20.147 20.1472 0 45 0C69.8528 0 90 20.147 90 45Z" fill="#000000" fill-opacity="1.000000" fill-rule="evenodd"/>
		<path id="Vector" d="M70.875 53.5137C68.256 53.5137 66.132 55.6377 66.132 58.2568C66.132 60.876 68.256 63 70.875 63C73.494 63 75.618 60.876 75.618 58.2568C75.618 55.6377 73.494 53.5137 70.875 53.5137ZM61.11 27.2881L42.678 43.7041L24.255 27.2881C23.517 26.6309 22.356 27.1528 22.356 28.1431L22.356 61.9111C22.356 62.5137 22.842 63 23.445 63L30.852 63C31.455 63 31.941 62.5137 31.941 61.9111L31.941 46.9619L41.517 55.4849C42.192 56.0791 43.2 56.0791 43.875 55.4849L53.451 46.9619L53.451 61.9111C53.451 62.5137 53.937 63 54.54 63L61.947 63C62.55 63 63.036 62.5137 63.036 61.9111L63.036 28.1431C63.018 27.1621 61.848 26.6401 61.11 27.2881Z" fill="#FFFFFF" fill-opacity="1.000000" fill-rule="nonzero"/>
	</g>
</svg>
