<svg width="36.000000" height="36.000000" viewBox="0 0 36 36" fill="none" xmlns="http://www.w3.org/2000/svg" xmlns:xlink="http://www.w3.org/1999/xlink">
	<desc>
			Created with Pixso.
	</desc>
	<defs>
		<clipPath id="clip1_316">
			<rect id="svg_social_twitter" width="36.000000" height="36.000000" fill="white" fill-opacity="0"/>
		</clipPath>
		<clipPath id="clip1_313">
			<rect id="svg" width="36.000000" height="36.000000" fill="white" fill-opacity="0"/>
		</clipPath>
	</defs>
	<rect id="a" rx="18.000000" width="36.000000" height="36.000000" fill="#000000" fill-opacity="1.000000"/>
	<g clip-path="url(#clip1_313)">
		<rect id="svg_social_twitter" width="36.000000" height="36.000000" fill="#FFFFFF" fill-opacity="0"/>
		<g clip-path="url(#clip1_316)">
			<path id="Vector" d="M27.5001 12.2998C26.8 12.5996 26.0001 12.7998 25.2 12.9004C26.0001 12.4004 26.6 11.5996 26.9001 10.7002C26.1 11.2002 25.3 11.5 24.4001 11.7002C23.7 10.9004 22.6 10.5 21.5001 10.5C19.3 10.5 17.5001 12.2998 17.5001 14.5C17.5001 14.7998 17.5001 15.0996 17.6 15.4004C14.3 15.2002 11.4001 13.7002 9.40005 11.2998C9.10004 11.9004 8.90005 12.5996 8.90005 13.2998C8.90005 14.7002 9.60004 15.9004 10.7 16.5996C10.1 16.5996 9.40005 16.4004 8.90005 16.0996C8.90005 18 10.3 19.5996 12.1 20C11.8 20.0996 11.4001 20.0996 11.1 20.0996C10.8 20.0996 10.6 20.0996 10.4001 20C10.9001 21.5996 12.4001 22.7002 14.1 22.7002C12.7 23.7998 11.0001 24.4004 9.20004 24.4004C8.90005 24.4004 8.60004 24.4004 8.30005 24.2998C10.1 25.4004 12.1 26.0996 14.4001 26.0996C21.7 26.0996 25.7 20.0996 25.7 14.7998L25.7 14.2998C26.3 13.7998 26.9001 13.0996 27.5001 12.2998Z" fill="#FFFFFF" fill-opacity="1.000000" fill-rule="nonzero"/>
		</g>
	</g>
</svg>
