<svg width="120.000000" height="120.000000" viewBox="0 0 120 120" fill="none" xmlns="http://www.w3.org/2000/svg" xmlns:xlink="http://www.w3.org/1999/xlink">
	<desc>
			Created with Pixso.
	</desc>
	<defs>
		<clipPath id="clip1_183">
			<rect id="svg#Layer_1" width="120.000000" height="120.000000" fill="white" fill-opacity="0"/>
		</clipPath>
	</defs>
	<g clip-path="url(#clip1_183)">
		<path id="Vector" d="M60 0C26.868 0 0 26.8682 0 60C0 93.1318 26.868 120 60 120C93.132 120 120 93.1318 120 60C120 26.8682 93.132 0 60 0ZM60 117.6C28.236 117.6 2.39999 91.7642 2.39999 60C2.39999 28.2358 28.236 2.3999 60 2.3999C91.764 2.3999 117.6 28.2358 117.6 60C117.6 91.7642 91.764 117.6 60 117.6ZM91.2 57.6001L98.4 57.6001L98.4 56.3999L91.2 56.3999L91.2 57.6001ZM28.8 56.3999L21.6 56.3999L21.6 57.6001L28.8 57.6001L28.8 56.3999ZM93.552 38.3159L92.952 37.272L86.712 40.8721L87.312 41.916L93.552 38.3159ZM26.448 75.6841L27.048 76.728L33.288 73.1279L32.688 72.084L26.448 75.6841ZM79.716 24.0479L78.672 23.4482L75.072 29.688L76.116 30.2881L79.716 24.0479ZM60.6 18.6001L59.4 18.6001L59.4 25.7998L60.6 25.7998L60.6 18.6001ZM44.916 29.6758L41.316 23.436L40.272 24.0361L43.872 30.2759L44.916 29.6758ZM26.448 38.3159L32.688 41.916L33.288 40.8721L27.048 37.272L26.448 38.3159ZM86.724 73.1162L92.964 76.7158L93.564 75.6719L87.324 72.0718L86.724 73.1162ZM60 31.2002C46.08 31.2002 34.8 42.48 34.8 56.3999C34.8 65.9639 40.152 74.2559 48 78.5161L48 94.0918L53.508 99.6001L66.504 99.6001L72 94.0918L72 78.5161C79.848 74.2559 85.2 65.9639 85.2 56.3999C85.2 42.48 73.92 31.2002 60 31.2002ZM65.508 97.2002L54.504 97.2002L50.904 93.6001L69.108 93.6001L65.508 97.2002ZM69.6 92.3999L50.4 92.3999L50.4 88.7998L69.6 88.7998L69.6 92.3999ZM69.6 87.6001L50.4 87.6001L50.4 84L69.6 84L69.6 87.6001ZM69.6 82.7998L50.4 82.7998L50.4 79.2002L69.6 79.2002L69.6 82.7998ZM56.4 64.2002C56.4 65.2202 56.796 66.084 57.564 66.6958C58.212 67.2119 59.076 67.5 60 67.5C61.788 67.5 63.6 66.3721 63.6 64.2002C63.6 62.916 62.58 61.6201 60.996 60.3242C63.06 58.896 65.736 57.4438 68.124 56.1479C68.556 55.9082 68.988 55.6802 69.408 55.4521C68.16 62.7842 66.648 73.332 66.168 76.7881L53.832 76.7881C53.34 73.332 51.84 62.7842 50.592 55.4521C51.012 55.6802 51.444 55.9082 51.876 56.1479C54.264 57.4438 56.94 58.896 59.004 60.3242C57.42 61.6201 56.4 62.916 56.4 64.2002ZM60 61.0562C61.452 62.1719 62.4 63.252 62.4 64.2002C62.4 65.6519 61.2 66.2998 60 66.2998C58.8 66.2998 57.6 65.6519 57.6 64.2002C57.6 63.252 58.548 62.1719 60 61.0562ZM70.104 76.7998L67.368 76.7998C67.896 73.0439 69.504 61.8838 70.74 54.7202C73.86 52.98 76.284 51.4199 76.764 49.9922C77.076 49.0439 77.064 48.1558 76.704 47.4121C76.38 46.728 75.792 46.2241 75.06 45.9839C73.572 45.48 71.568 46.1641 70.824 48.4082C70.536 49.2598 70.128 51.312 69.66 53.9399C68.952 54.3242 68.244 54.7202 67.548 55.0918C64.836 56.5562 62.088 58.0562 60 59.5562C57.912 58.0562 55.152 56.5562 52.452 55.0918C51.756 54.7202 51.036 54.3242 50.34 53.9399C49.872 51.2998 49.464 49.2598 49.176 48.4082C48.432 46.1641 46.44 45.48 44.94 45.9839C44.208 46.2241 43.62 46.7402 43.296 47.4121C42.948 48.1558 42.924 49.0439 43.236 49.9922C43.716 51.4199 46.128 52.98 49.26 54.7202C50.496 61.8838 52.104 73.0439 52.632 76.7998L49.896 76.7998C42.384 73.0679 37.2 65.3398 37.2 56.3999C37.2 43.8242 47.424 33.6001 60 33.6001C72.576 33.6001 82.8 43.8242 82.8 56.3999C82.8 65.3398 77.616 73.0679 70.104 76.7998ZM71.028 53.1841C71.412 51.084 71.736 49.4878 71.976 48.792C72.384 47.5679 73.26 47.0278 74.1 47.0278C74.304 47.0278 74.508 47.064 74.7 47.124C75.12 47.2681 75.456 47.5562 75.636 47.9399C75.852 48.396 75.852 48.9722 75.636 49.6201C75.324 50.5322 73.368 51.8398 71.028 53.1841ZM48.972 53.1841C46.632 51.8398 44.676 50.5322 44.364 49.6079C44.148 48.96 44.148 48.3838 44.364 47.9282C44.544 47.5439 44.88 47.2559 45.3 47.1118C45.492 47.0518 45.696 47.0161 45.9 47.0161C46.728 47.0161 47.616 47.5562 48.024 48.7798C48.264 49.5 48.6 51.084 48.972 53.1841Z" fill="#FFFFFF" fill-opacity="1.000000" fill-rule="nonzero"/>
	</g>
</svg>
