<svg width="120.000000" height="120.000000" viewBox="0 0 120 120" fill="none" xmlns="http://www.w3.org/2000/svg" xmlns:xlink="http://www.w3.org/1999/xlink">
	<desc>
			Created with Pixso.
	</desc>
	<defs>
		<clipPath id="clip1_208">
			<rect id="svg#Layer_1" width="120.000000" height="120.000000" fill="white" fill-opacity="0"/>
		</clipPath>
	</defs>
	<g clip-path="url(#clip1_208)">
		<path id="Vector" d="M93.9 45.9121L82.8 57.0239L82.8 22.7998L30 22.7998L30 97.2002L82.8 97.2002L82.8 77.3882L104.088 56.1001L93.9 45.9121ZM80.4 94.7998L32.4 94.7998L32.4 25.2002L80.4 25.2002L80.4 59.4238L70.224 69.6001L39.6 69.6001L39.6 70.7998L69.024 70.7998L63.024 76.7998L39.6 76.7998L39.6 78L62.16 78L60.78 84L39.6 84L39.6 85.2002L60.504 85.2002L59.208 90.792L72.444 87.7441L80.4 79.7881L80.4 94.7998ZM64.2 79.8481L70.152 85.7998L62.412 87.5879L64.2 79.8481ZM71.412 85.3682L64.62 78.5762L88.8 54.396L93.048 58.644L68.868 82.8242L69.72 83.6758L93.9 59.4961L95.592 61.188L71.412 85.3682ZM89.664 53.5562L93.912 49.3081L100.704 56.1001L96.456 60.3481L89.664 53.5562ZM60 0C26.868 0 0 26.8682 0 60C0 93.1318 26.868 120 60 120C93.132 120 120 93.1318 120 60C120 26.8682 93.132 0 60 0ZM60 117.6C28.236 117.6 2.4 91.7642 2.4 60C2.4 28.2358 28.236 2.3999 60 2.3999C91.764 2.3999 117.6 28.2358 117.6 60C117.6 91.7642 91.764 117.6 60 117.6ZM73.2 62.3999L39.6 62.3999L39.6 63.6001L73.2 63.6001L73.2 62.3999ZM61.2 32.3999L39.6 32.3999L39.6 54L61.2 54L61.2 32.3999ZM60 52.7998L40.8 52.7998L40.8 33.6001L60 33.6001L60 52.7998Z" fill="#FFFFFF" fill-opacity="1.000000" fill-rule="nonzero"/>
	</g>
</svg>
