<svg width="120.000000" height="120.000000" viewBox="0 0 120 120" fill="none" xmlns="http://www.w3.org/2000/svg" xmlns:xlink="http://www.w3.org/1999/xlink">
	<desc>
			Created with Pixso.
	</desc>
	<defs>
		<clipPath id="clip1_188">
			<rect id="svg#Layer_1" width="120.000000" height="120.000000" fill="white" fill-opacity="0"/>
		</clipPath>
	</defs>
	<g clip-path="url(#clip1_188)">
		<path id="Vector" d="M60 0C26.868 0 0 26.8682 0 60C0 93.1318 26.868 120 60 120C93.132 120 120 93.1318 120 60C120 26.8682 93.132 0 60 0ZM60 117.6C28.236 117.6 2.4 91.7642 2.4 60C2.4 28.2358 28.236 2.3999 60 2.3999C91.764 2.3999 117.6 28.2358 117.6 60C117.6 91.7642 91.764 117.6 60 117.6ZM37.2 28.7998L39.6 28.7998L39.6 27.6001L37.2 27.6001L37.2 28.7998ZM54 27.6001L51.6 27.6001L51.6 28.7998L54 28.7998L54 27.6001ZM61.2 27.6001L58.8 27.6001L58.8 28.7998L61.2 28.7998L61.2 27.6001ZM44.4 28.7998L46.8 28.7998L46.8 27.6001L44.4 27.6001L44.4 28.7998ZM68.4 27.6001L66 27.6001L66 28.7998L68.4 28.7998L68.4 27.6001ZM37.2 86.3999L39.6 86.3999L39.6 85.2002L37.2 85.2002L37.2 86.3999ZM44.4 86.3999L46.8 86.3999L46.8 85.2002L44.4 85.2002L44.4 86.3999ZM51.6 86.3999L54 86.3999L54 85.2002L51.6 85.2002L51.6 86.3999ZM77.892 64.2358C78.444 51.4321 77.28 37.4038 74.4 28.6079L74.4 20.3999L28.8 20.3999L28.8 28.6079C23.952 43.3921 23.952 72.9961 28.8 86.6162L28.8 94.7998L58.572 94.7998C58.908 95.6519 59.22 96.4321 59.496 97.0679C61.464 101.652 66.768 103.8 76.2 103.8C85.632 103.8 90.936 101.664 92.904 97.0679C94.704 92.8682 98.472 81.4561 98.604 81.0479L98.712 80.772C101.172 79.1162 102.6 77.1479 102.6 74.9878C102.6 69.0718 92.088 64.5718 77.892 64.2358ZM31.2 92.3999L31.2 86.3999L32.4 86.3999L32.4 85.2002L30.864 85.2002C26.436 71.8799 26.52 43.0322 31.14 29.1841L31.2 28.9922L31.2 28.7998L32.4 28.7998L32.4 27.6001L31.2 27.6001L31.2 22.7998L72 22.7998L72 28.9922L72.06 29.1719C74.868 37.5962 75.996 51.5518 75.456 64.2119C60.78 64.3682 49.8 68.9399 49.8 75C49.8 77.0762 51.108 78.9722 53.4 80.5801L54.048 82.356C54.156 82.668 55.98 87.8999 57.66 92.3999L31.2 92.3999ZM90.696 96.1318C89.148 99.7319 84.552 101.4 76.2 101.4C67.848 101.4 63.24 99.7202 61.704 96.1318C60.84 94.104 59.52 90.564 58.404 87.4678C61.728 89.208 67.752 90.6001 76.2 90.6001C84.552 90.6001 90.528 89.2441 93.876 87.5278C92.76 90.7559 91.512 94.2358 90.696 96.1318ZM94.476 85.7881C91.728 87.708 85.176 89.3999 76.2 89.3999C67.056 89.3999 60.42 87.6362 57.768 85.6802C57.264 84.2759 56.856 83.1001 56.592 82.356C61.344 84.4922 68.244 85.7881 76.2 85.7881C84.048 85.7881 90.864 84.5161 95.616 82.4399C95.304 83.376 94.908 84.5278 94.476 85.7881ZM76.2 83.3999C62.052 83.3999 52.2 78.9722 52.2 75C52.2 71.0278 62.052 66.6001 76.2 66.6001C90.348 66.6001 100.2 71.0278 100.2 75C100.2 78.9722 90.348 83.3999 76.2 83.3999Z" fill="#FFFFFF" fill-opacity="1.000000" fill-rule="nonzero"/>
	</g>
</svg>
