<svg width="120.000000" height="120.000000" viewBox="0 0 120 120" fill="none" xmlns="http://www.w3.org/2000/svg" xmlns:xlink="http://www.w3.org/1999/xlink">
	<desc>
			Created with Pixso.
	</desc>
	<defs>
		<clipPath id="clip1_193">
			<rect id="svg#Layer_1" width="120.000000" height="120.000000" fill="white" fill-opacity="0"/>
		</clipPath>
	</defs>
	<g clip-path="url(#clip1_193)">
		<path id="Vector" d="M60 0C26.868 0 0 26.8682 0 60C0 93.1318 26.868 120 60 120C93.132 120 120 93.1318 120 60C120 26.8682 93.132 0 60 0ZM60 117.6C28.236 117.6 2.39999 91.7642 2.39999 60C2.39999 28.2358 28.236 2.3999 60 2.3999C91.764 2.3999 117.6 28.2358 117.6 60C117.6 91.7642 91.764 117.6 60 117.6ZM93 35.9399L93 30L83.4 30L83.4 34.5122L81.06 29.8442C79.632 26.9761 76.752 25.2002 73.548 25.2002L63.252 25.2002C60.048 25.2002 57.168 26.9761 55.74 29.8442L53.256 34.7998L31.2 34.7998C26.568 34.7998 22.8 38.5679 22.8 43.2002L22.8 76.7998C22.8 81.4321 26.568 85.2002 31.2 85.2002L88.8 85.2002C93.432 85.2002 97.2 81.4321 97.2 76.7998L97.2 43.2002C97.2 40.104 95.508 37.3921 93 35.9399ZM85.8 32.3999L90.6 32.3999L90.6 35.0039C90.024 34.8721 89.424 34.7998 88.8 34.7998L85.8 34.7998L85.8 32.3999ZM42 82.7998L31.2 82.7998C27.888 82.7998 25.2 80.1118 25.2 76.7998L25.2 43.2002C25.2 39.8882 27.888 37.2002 31.2 37.2002L42 37.2002L42 82.7998ZM94.8 76.7998C94.8 80.1118 92.112 82.7998 88.8 82.7998L43.2 82.7998L43.2 37.2002L54.744 37.2002L57.888 30.9121C58.908 28.8721 60.96 27.6001 63.252 27.6001L73.548 27.6001C75.84 27.6001 77.892 28.8721 78.912 30.9121L82.056 37.2002L88.8 37.2002C92.112 37.2002 94.8 39.8882 94.8 43.2002L94.8 76.7998ZM68.4 37.2002C56.484 37.2002 46.8 46.8838 46.8 58.7998C46.8 70.7158 56.484 80.3999 68.4 80.3999C80.316 80.3999 90 70.7158 90 58.7998C90 46.8838 80.316 37.2002 68.4 37.2002ZM68.4 78C57.816 78 49.2 69.3838 49.2 58.7998C49.2 48.2158 57.816 39.6001 68.4 39.6001C78.984 39.6001 87.6 48.2158 87.6 58.7998C87.6 69.3838 78.984 78 68.4 78ZM68.4 43.2002C59.784 43.2002 52.8 50.1841 52.8 58.7998C52.8 67.416 59.784 74.3999 68.4 74.3999C77.016 74.3999 84 67.416 84 58.7998C84 50.1841 77.016 43.2002 68.4 43.2002ZM68.4 73.2002C60.456 73.2002 54 66.7441 54 58.7998C54 50.856 60.456 44.3999 68.4 44.3999C76.344 44.3999 82.8 50.856 82.8 58.7998C82.8 66.7441 76.344 73.2002 68.4 73.2002ZM28.8 45.6001C28.8 48.252 30.948 50.3999 33.6 50.3999C36.252 50.3999 38.4 48.252 38.4 45.6001C38.4 42.9482 36.252 40.7998 33.6 40.7998C30.948 40.7998 28.8 42.9482 28.8 45.6001ZM33.6 42C35.58 42 37.2 43.6201 37.2 45.6001C37.2 47.5801 35.58 49.2002 33.6 49.2002C31.62 49.2002 30 47.5801 30 45.6001C30 43.6201 31.62 42 33.6 42Z" fill="#FFFFFF" fill-opacity="1.000000" fill-rule="nonzero"/>
	</g>
</svg>
