<svg width="120.000000" height="120.000000" viewBox="0 0 120 120" fill="none" xmlns="http://www.w3.org/2000/svg" xmlns:xlink="http://www.w3.org/1999/xlink">
	<desc>
			Created with Pixso.
	</desc>
	<defs>
		<clipPath id="clip1_178">
			<rect id="svg#Layer_1" width="120.000000" height="120.000000" fill="white" fill-opacity="0"/>
		</clipPath>
	</defs>
	<g clip-path="url(#clip1_178)">
		<path id="Vector" d="M60 0C26.868 0 0 26.8682 0 60C0 93.1318 26.868 120 60 120C93.132 120 120 93.1318 120 60C120 26.8682 93.132 0 60 0ZM60 117.6C28.236 117.6 2.39999 91.7642 2.39999 60C2.39999 28.2358 28.236 2.3999 60 2.3999C91.764 2.3999 117.6 28.2358 117.6 60C117.6 91.7642 91.764 117.6 60 117.6ZM44.4 88.7998C39.096 88.7998 34.8 93.0962 34.8 98.3999C34.8 103.704 39.096 108 44.4 108C49.704 108 54 103.704 54 98.3999C54 93.0962 49.704 88.7998 44.4 88.7998ZM44.4 105.6C40.428 105.6 37.2 102.372 37.2 98.3999C37.2 94.4282 40.428 91.2002 44.4 91.2002C48.372 91.2002 51.6 94.4282 51.6 98.3999C51.6 102.372 48.372 105.6 44.4 105.6ZM27.492 57L36.24 48.252L34.548 46.5601L25.8 55.3081L17.052 46.5601L15.36 48.252L24.108 57L15.36 65.748L17.052 67.4399L25.8 58.6919L34.548 67.4399L36.24 65.748L27.492 57ZM50.652 35.0518L59.4 26.3042L68.148 35.0518L69.84 33.3599L61.092 24.6118L69.84 15.8638L68.148 14.1719L59.4 22.9199L50.652 14.1719L48.96 15.8638L57.708 24.6118L48.96 33.3599L50.652 35.0518ZM93.348 72.9482L84.6 81.6958L75.852 72.9482L74.16 74.6401L82.908 83.3882L74.16 92.1362L75.852 93.8281L84.6 85.0801L93.348 93.8281L95.04 92.1362L86.292 83.3882L95.04 74.6401L93.348 72.9482ZM87.612 31.4399L89.1 40.6079C78.06 41.9878 69.48 46.6201 64.032 50.4961C62.328 48.9482 60.084 48 57.6 48C52.296 48 48 52.2959 48 57.6001C48 62.9038 52.296 67.2002 57.6 67.2002C62.904 67.2002 67.2 62.9038 67.2 57.6001C67.2 55.668 66.624 53.8682 65.64 52.356C70.896 48.6719 79.116 44.2798 89.496 42.9839L90.948 51.96L107.052 38.8198L87.612 31.4399ZM57.6 64.7998C53.628 64.7998 50.4 61.5718 50.4 57.6001C50.4 53.6279 53.628 50.3999 57.6 50.3999C61.572 50.3999 64.8 53.6279 64.8 57.6001C64.8 61.5718 61.572 64.7998 57.6 64.7998ZM90.648 35.1602L102.312 39.5879L92.652 47.4722L90.648 35.1602ZM46.2 82.5L43.848 82.0322C43.68 82.8481 43.536 83.7002 43.404 84.5518L45.78 84.8999C45.912 84.084 46.044 83.2798 46.2 82.5ZM48.204 75.4678L45.96 74.6279C45.672 75.4082 45.384 76.2241 45.132 77.0518L47.424 77.772C47.664 76.98 47.928 76.2119 48.204 75.4678ZM51.3 68.8442L49.212 67.6562C48.804 68.376 48.396 69.1318 48 69.9238L50.148 71.0039C50.52 70.248 50.916 69.5278 51.3 68.8442Z" fill="#FFFFFF" fill-opacity="1.000000" fill-rule="nonzero"/>
	</g>
</svg>
