<svg width="120.000000" height="120.000000" viewBox="0 0 120 120" fill="none" xmlns="http://www.w3.org/2000/svg" xmlns:xlink="http://www.w3.org/1999/xlink">
	<desc>
			Created with Pixso.
	</desc>
	<defs>
		<clipPath id="clip1_213">
			<rect id="svg#Layer_1" width="120.000000" height="120.000000" fill="white" fill-opacity="0"/>
		</clipPath>
	</defs>
	<g clip-path="url(#clip1_213)">
		<path id="Vector" d="M60 0C26.868 0 0 26.8682 0 60C0 93.1318 26.868 120 60 120C93.132 120 120 93.1318 120 60C120 26.8682 93.132 0 60 0ZM60 117.6C28.236 117.6 2.39999 91.7642 2.39999 60C2.39999 28.2358 28.236 2.3999 60 2.3999C91.764 2.3999 117.6 28.2358 117.6 60C117.6 91.7642 91.764 117.6 60 117.6ZM36 39.6001C31.356 39.6001 27.6 43.356 27.6 48C27.6 52.644 31.356 56.3999 36 56.3999C40.644 56.3999 44.4 52.644 44.4 48C44.4 43.356 40.644 39.6001 36 39.6001ZM36 55.2002C32.028 55.2002 28.8 51.9722 28.8 48C28.8 44.0278 32.028 40.7998 36 40.7998C39.972 40.7998 43.2 44.0278 43.2 48C43.2 51.9722 39.972 55.2002 36 55.2002ZM68.4 41.3999L49.2 41.3999L49.2 42.6001L68.4 42.6001L68.4 41.3999ZM68.4 47.3999L49.2 47.3999L49.2 48.6001L68.4 48.6001L68.4 47.3999ZM94.8 51.6001L76.8 51.6001L76.8 37.2002C76.8 33.8882 74.112 31.2002 70.8 31.2002L27.6 31.2002C24.288 31.2002 21.6 33.8882 21.6 37.2002L21.6 58.7998C21.6 62.1118 24.288 64.7998 27.6 64.7998L28.8 64.7998L28.8 74.6401L40.056 64.7998L45.6 64.7998L45.6 79.2002C45.6 82.5122 48.288 85.2002 51.6 85.2002L82.344 85.2002L93.6 95.04L93.6 85.2002L94.8 85.2002C98.112 85.2002 100.8 82.5122 100.8 79.2002L100.8 57.6001C100.8 54.2881 98.112 51.6001 94.8 51.6001ZM45.6 57.6001L45.6 62.3999L39.144 62.3999L31.2 69.3599L31.2 62.3999L27.6 62.3999C25.62 62.3999 24 60.7798 24 58.7998L24 37.2002C24 35.2202 25.62 33.6001 27.6 33.6001L70.8 33.6001C72.78 33.6001 74.4 35.2202 74.4 37.2002L74.4 51.6001L51.6 51.6001C48.288 51.6001 45.6 54.2881 45.6 57.6001ZM98.4 79.2002C98.4 81.1802 96.78 82.7998 94.8 82.7998L91.2 82.7998L91.2 89.7598L83.256 82.7998L51.6 82.7998C49.62 82.7998 48 81.1802 48 79.2002L48 57.6001C48 55.6201 49.62 54 51.6 54L94.8 54C96.78 54 98.4 55.6201 98.4 57.6001L98.4 79.2002ZM86.4 60C81.756 60 78 63.7559 78 68.3999C78 73.0439 81.756 76.7998 86.4 76.7998C91.044 76.7998 94.8 73.0439 94.8 68.3999C94.8 63.7559 91.044 60 86.4 60ZM86.4 75.6001C82.428 75.6001 79.2 72.3721 79.2 68.3999C79.2 64.4282 82.428 61.2002 86.4 61.2002C90.372 61.2002 93.6 64.4282 93.6 68.3999C93.6 72.3721 90.372 75.6001 86.4 75.6001ZM54 63L73.2 63L73.2 61.7998L54 61.7998L54 63ZM54 69L73.2 69L73.2 67.7998L54 67.7998L54 69ZM54 75L66 75L66 73.7998L54 73.7998L54 75Z" fill="#FFFFFF" fill-opacity="1.000000" fill-rule="nonzero"/>
	</g>
</svg>
