<svg width="120.000000" height="120.000000" viewBox="0 0 120 120" fill="none" xmlns="http://www.w3.org/2000/svg" xmlns:xlink="http://www.w3.org/1999/xlink">
	<desc>
			Created with Pixso.
	</desc>
	<defs>
		<clipPath id="clip1_203">
			<rect id="svg#Layer_1" width="120.000000" height="120.000000" fill="white" fill-opacity="0"/>
		</clipPath>
	</defs>
	<g clip-path="url(#clip1_203)">
		<path id="Vector" d="M60.072 0C60.048 0 60.024 0 60 0C26.892 0 0.0480652 26.8081 6.10352e-05 59.9282C-0.0479431 93.0601 26.784 119.952 59.928 120C59.952 120 59.976 120 60 120C93.096 120 119.952 93.1919 120 60.0718C120.048 26.9399 93.216 0.0478516 60.072 0ZM60 117.6L59.928 117.6C28.164 117.564 2.36406 91.6919 2.40005 59.9282C2.43607 28.2119 28.284 2.3999 60 2.3999L60.072 2.3999C91.836 2.43604 117.636 28.3081 117.6 60.0718C117.564 91.7881 91.716 117.6 60 117.6ZM97.2 84L97.2 43.104L99.6 43.104L99.6 28.7041L20.4 28.7041L20.4 43.104L22.8 43.104L22.8 84L16.8 84L16.8 86.3999L30 86.3999L30 92.3042L25.2 92.3042L25.2 94.7041L66 94.7041L66 92.3042L61.2 92.3042L61.2 86.3999L74.4 86.3999L74.4 92.3042L70.8 92.3042L70.8 94.7041L92.4 94.7041L92.4 92.3042L88.8 92.3042L88.8 86.3999L103.2 86.3999L103.2 84L97.2 84ZM22.8 31.104L97.2 31.104L97.2 40.7041L22.8 40.7041L22.8 31.104ZM58.8 92.3042L32.4 92.3042L32.4 73.104L58.8 73.104L58.8 92.3042ZM42 67.104L42 70.7041L34.8 70.7041L34.8 67.104C34.8 65.124 36.42 63.5039 38.4 63.5039C40.38 63.5039 42 65.124 42 67.104ZM34.8 58.7041C34.8 56.7241 36.42 55.104 38.4 55.104C40.38 55.104 42 56.7241 42 58.7041C42 60.6841 40.38 62.3042 38.4 62.3042C36.42 62.3042 34.8 60.6958 34.8 58.7041ZM56.4 67.104L56.4 70.7041L49.2 70.7041L49.2 67.104C49.2 65.124 50.82 63.5039 52.8 63.5039C54.78 63.5039 56.4 65.124 56.4 67.104ZM49.2 58.7041C49.2 56.7241 50.82 55.104 52.8 55.104C54.78 55.104 56.4 56.7241 56.4 58.7041C56.4 60.6841 54.78 62.3042 52.8 62.3042C50.82 62.3042 49.2 60.6958 49.2 58.7041ZM86.4 92.3042L76.8 92.3042L76.8 59.9038L86.4 59.9038L86.4 92.3042ZM86.4 58.7041L76.8 58.7041L76.8 56.3042L86.4 56.3042L86.4 58.7041ZM94.8 84L88.8 84L88.8 53.9038L74.4 53.9038L74.4 84L61.2 84L61.2 70.7041L57.6 70.7041L57.6 67.104C57.6 65.2798 56.568 63.7202 55.08 62.9038C56.58 62.0879 57.6 60.5278 57.6 58.7041C57.6 56.0518 55.452 53.9038 52.8 53.9038C50.148 53.9038 48 56.0518 48 58.7041C48 60.5278 49.032 62.0879 50.52 62.9038C49.02 63.7202 48 65.2798 48 67.104L48 70.7041L43.2 70.7041L43.2 67.104C43.2 65.2798 42.168 63.7202 40.68 62.9038C42.18 62.0879 43.2 60.5278 43.2 58.7041C43.2 56.0518 41.052 53.9038 38.4 53.9038C35.748 53.9038 33.6 56.0518 33.6 58.7041C33.6 60.5278 34.632 62.0879 36.12 62.9038C34.62 63.7202 33.6 65.2798 33.6 67.104L33.6 70.7041L30 70.7041L30 84L25.2 84L25.2 43.104L94.8 43.104L94.8 84Z" fill="#FFFFFF" fill-opacity="1.000000" fill-rule="nonzero"/>
	</g>
</svg>
