<svg width="120.000000" height="120.000000" viewBox="0 0 120 120" fill="none" xmlns="http://www.w3.org/2000/svg" xmlns:xlink="http://www.w3.org/1999/xlink">
	<desc>
			Created with Pixso.
	</desc>
	<defs>
		<clipPath id="clip1_198">
			<rect id="svg#Layer_1" width="120.000000" height="120.000000" fill="white" fill-opacity="0"/>
		</clipPath>
	</defs>
	<g clip-path="url(#clip1_198)">
		<path id="Vector" d="M60.072 0C60.048 0 60.024 0 60 0C26.892 0 0.0480347 26.8081 6.10352e-05 59.9282C-0.0479126 93.0601 26.784 119.952 59.928 120C59.952 120 59.976 120 60 120C93.096 120 119.952 93.1919 120 60.0718C120.048 26.9399 93.216 0.0478516 60.072 0ZM60 117.6L59.928 117.6C28.164 117.564 2.36407 91.6919 2.40005 59.9282C2.43607 28.2119 28.284 2.3999 60 2.3999L60.072 2.3999C91.836 2.43604 117.636 28.3081 117.6 60.0718C117.564 91.7881 91.716 117.6 60 117.6ZM91.2 31.2959L21.6 31.2959L21.6 79.2959L51.6 79.2959L51.6 84.0962L45.6 84.0962L45.6 86.4961L67.2 86.4961L67.2 84.0962L61.2 84.0962L61.2 79.2959L74.4 79.2959L74.4 93.6958L98.4 93.6958L98.4 57.6958L91.2 57.6958L91.2 31.2959ZM58.8 84.0962L54 84.0962L54 79.2959L58.8 79.2959L58.8 84.0962ZM74.4 76.896L24 76.896L24 33.6958L88.8 33.6958L88.8 57.6958L74.4 57.6958L74.4 76.896ZM96 60.0962L96 91.2959L76.8 91.2959L76.8 60.0962L96 60.0962Z" fill="#FFFFFF" fill-opacity="1.000000" fill-rule="nonzero"/>
	</g>
</svg>
